<?xml version="1.0" encoding="utf-8"?><svg viewBox="0 0 26 21" xmlns="http://www.w3.org/2000/svg" xmlns:xlink="http://www.w3.org/1999/xlink"><style>:root>svg{display:none}:root>svg:target{display:block}</style><svg fill="none" viewBox="0 0 16 13" id="mail" xmlns="http://www.w3.org/2000/svg"><rect x=".5" y=".5" width="15" height="12" rx="2.5" stroke="#fff"/><path d="m.667 1.733 5.272 4.985a3 3 0 0 0 4.122 0l5.272-4.985" stroke="#fff"/></svg><svg fill="none" viewBox="0 0 18 18" id="phone" xmlns="http://www.w3.org/2000/svg"><path d="M14.003 16.884C5.38 14.045 1.853 7.318 1.071 3.966a.874.874 0 0 1 .089-.63C2.103 1.673 3.478 1 4.012 1c.452 0 1.82 2.133 2.447 3.2.547.82-.106 2.116-.607 2.818-.093.13-.168.28-.117.431.429 1.274 4.69 5.02 4.865 4.845.126-.126 1.14-.612 1.871-.951a.942.942 0 0 1 .781-.012c1.621.725 2.777 1.727 3.388 2.403a.81.81 0 0 1 .1.95c-.627 1.093-1.478 1.796-2.044 2.14a.833.833 0 0 1-.693.06Z" stroke="#fff"/></svg><svg fill="none" viewBox="0 0 16 21" id="placeholder" xmlns="http://www.w3.org/2000/svg"><path d="M8 19.85C2.718 14.27-4.678 2.66 8 .85c5.282.302 12.678 4.524 0 19Z" stroke="#fff"/><path d="M11.122 7.636A3.12 3.12 0 0 1 8 10.755a3.12 3.12 0 0 1-3.122-3.12A3.12 3.12 0 0 1 8 4.518a3.12 3.12 0 0 1 3.122 3.119Z" stroke="#fff"/></svg><svg fill="none" viewBox="0 0 19 19" id="search" xmlns="http://www.w3.org/2000/svg"><path d="m18.711 17.306-4.684-4.703a7.49 7.49 0 0 0 1.864-4.932C15.891 3.441 12.327 0 7.946 0S0 3.441 0 7.671s3.565 7.671 7.946 7.671a8.056 8.056 0 0 0 4.552-1.388l4.72 4.74c.197.197.462.306.746.306.27 0 .525-.1.718-.28a.977.977 0 0 0 .03-1.414ZM7.946 2.001c3.238 0 5.873 2.544 5.873 5.67 0 3.127-2.635 5.67-5.873 5.67-3.239 0-5.873-2.543-5.873-5.67 0-3.126 2.634-5.67 5.873-5.67Z" fill="#fff"/></svg><svg fill="none" viewBox="0 0 21 17" id="user-busket" xmlns="http://www.w3.org/2000/svg"><path d="M17.81 4.695a.806.806 0 0 1 .178.674l-.755 4.08a.76.76 0 0 1-.307.525.969.969 0 0 1-.606.206H5.32L5.1 11.34h10.485c.252 0 .47.084.656.253a.813.813 0 0 1 .278.627c0 .25-.093.458-.278.627a.942.942 0 0 1-.656.253H3.988a.945.945 0 0 1-.714-.319.873.873 0 0 1-.219-.73l.497-2.545-.755-7.15-2.145-.637A.882.882 0 0 1 .036.615.839.839 0 0 1 .504.1c.232-.106.467-.128.705-.065l2.74.823c.173.05.315.144.428.281a.95.95 0 0 1 .208.468l.159 1.423 12.43 1.31c.279.037.49.156.636.355ZM5.397 13.586c.398 0 .735.131 1.013.393.278.262.417.58.417.955 0 .374-.139.696-.417.964a1.404 1.404 0 0 1-1.013.402c-.397 0-.734-.134-1.012-.402a1.292 1.292 0 0 1-.417-.964c0-.374.139-.693.417-.955a1.422 1.422 0 0 1 1.012-.393Zm8.48 0c.397 0 .734.131 1.012.393s.417.58.417.955c0 .374-.139.696-.417.964a1.404 1.404 0 0 1-1.012.402c-.398 0-.735-.134-1.013-.402a1.293 1.293 0 0 1-.417-.964c0-.374.139-.693.417-.955a1.422 1.422 0 0 1 1.013-.393Z" fill="#fff"/><circle cx="17" cy="4.463" r="4" fill="#2EF30E"/></svg><svg fill="none" viewBox="0 0 26 17" id="user-login" xmlns="http://www.w3.org/2000/svg"><path d="M23.454 15.984H2.562c-.895 0-1.687-.694-1.156-1.415 1.541-2.097 7.117-4.109 10.427-5.035.171-.048.345-.07.523-.07h1.305c.177 0 .359.024.53.072 6.51 1.803 9.328 3.703 10.336 5.052.535.718-.177 1.396-1.073 1.396ZM17.108 4.075c0 1.92-1.777 3.575-4.1 3.575-2.322 0-4.1-1.656-4.1-3.575 0-1.92 1.777-3.575 4.1-3.575 2.323 0 4.1 1.656 4.1 3.575Z" fill="#fff" stroke="#fff"/></svg></svg>