<?xml version="1.0" encoding="utf-8"?><svg viewBox="0 0 26 17" xmlns="http://www.w3.org/2000/svg" xmlns:xlink="http://www.w3.org/1999/xlink"><style>:root>svg{display:none}:root>svg:target{display:block}</style><svg fill="none" viewBox="0 0 21 17" id="user-busket" xmlns="http://www.w3.org/2000/svg"><path d="M17.81 4.695a.806.806 0 0 1 .178.674l-.755 4.08a.76.76 0 0 1-.307.525.969.969 0 0 1-.606.206H5.32L5.1 11.34h10.485c.252 0 .47.084.656.253a.813.813 0 0 1 .278.627c0 .25-.093.458-.278.627a.942.942 0 0 1-.656.253H3.988a.945.945 0 0 1-.714-.319.873.873 0 0 1-.219-.73l.497-2.545-.755-7.15-2.145-.637A.882.882 0 0 1 .036.615.839.839 0 0 1 .504.1c.232-.106.467-.128.705-.065l2.74.823c.173.05.315.144.428.281a.95.95 0 0 1 .208.468l.159 1.423 12.43 1.31c.279.037.49.156.636.355ZM5.397 13.586c.398 0 .735.131 1.013.393.278.262.417.58.417.955 0 .374-.139.696-.417.964a1.404 1.404 0 0 1-1.013.402c-.397 0-.734-.134-1.012-.402a1.292 1.292 0 0 1-.417-.964c0-.374.139-.693.417-.955a1.422 1.422 0 0 1 1.012-.393Zm8.48 0c.397 0 .734.131 1.012.393s.417.58.417.955c0 .374-.139.696-.417.964a1.404 1.404 0 0 1-1.012.402c-.398 0-.735-.134-1.013-.402a1.293 1.293 0 0 1-.417-.964c0-.374.139-.693.417-.955a1.422 1.422 0 0 1 1.013-.393Z" fill="#fff"/><circle cx="17" cy="4.463" r="4" fill="#2EF30E"/></svg><svg fill="none" viewBox="0 0 26 17" id="user-login" xmlns="http://www.w3.org/2000/svg"><path d="M23.454 15.984H2.562c-.895 0-1.687-.694-1.156-1.415 1.541-2.097 7.117-4.109 10.427-5.035.171-.048.345-.07.523-.07h1.305c.177 0 .359.024.53.072 6.51 1.803 9.328 3.703 10.336 5.052.535.718-.177 1.396-1.073 1.396ZM17.108 4.075c0 1.92-1.777 3.575-4.1 3.575-2.322 0-4.1-1.656-4.1-3.575 0-1.92 1.777-3.575 4.1-3.575 2.323 0 4.1 1.656 4.1 3.575Z" fill="#fff" stroke="#fff"/></svg></svg>