<?xml version="1.0" encoding="utf-8"?><svg viewBox="0 0 42 42" xmlns="http://www.w3.org/2000/svg" xmlns:xlink="http://www.w3.org/1999/xlink"><style>:root>svg{display:none}:root>svg:target{display:block}</style><svg fill="none" viewBox="0 0 42 42" id="facebook" xmlns="http://www.w3.org/2000/svg"><path d="M24.403 19H22v-2c0-1.032.084-1.682 1.563-1.682h.868a1 1 0 0 0 1-1v-1.254c0-.523-.401-.97-.923-1.005A26.154 26.154 0 0 0 22.693 12C19.98 12 18 13.657 18 16.699V19h-2a1 1 0 0 0-1 1v2a1 1 0 0 0 1 1l2-.001V31a1 1 0 0 0 1 1h2a1 1 0 0 0 1-1v-8.003l2.174-.001a1 1 0 0 0 .993-.886l.229-1.996A1 1 0 0 0 24.403 19Z" fill="#fff"/><circle cx="21" cy="21" r="20.5" stroke="#fff"/></svg><svg fill="none" viewBox="0 0 16 13" id="mail" xmlns="http://www.w3.org/2000/svg"><rect x=".5" y=".5" width="15" height="12" rx="2.5" stroke="#fff"/><path d="m.667 1.733 5.272 4.985a3 3 0 0 0 4.122 0l5.272-4.985" stroke="#fff"/></svg><svg fill="none" viewBox="0 0 18 18" id="phone" xmlns="http://www.w3.org/2000/svg"><path d="M14.003 16.884C5.38 14.045 1.853 7.318 1.071 3.966a.874.874 0 0 1 .089-.63C2.103 1.673 3.478 1 4.012 1c.452 0 1.82 2.133 2.447 3.2.547.82-.106 2.116-.607 2.818-.093.13-.168.28-.117.431.429 1.274 4.69 5.02 4.865 4.845.126-.126 1.14-.612 1.871-.951a.942.942 0 0 1 .781-.012c1.621.725 2.777 1.727 3.388 2.403a.81.81 0 0 1 .1.95c-.627 1.093-1.478 1.796-2.044 2.14a.833.833 0 0 1-.693.06Z" stroke="#fff"/></svg><svg fill="none" viewBox="0 0 16 21" id="placeholder" xmlns="http://www.w3.org/2000/svg"><path d="M8 19.85C2.718 14.27-4.678 2.66 8 .85c5.282.302 12.678 4.524 0 19Z" stroke="#fff"/><path d="M11.122 7.636A3.12 3.12 0 0 1 8 10.755a3.12 3.12 0 0 1-3.122-3.12A3.12 3.12 0 0 1 8 4.518a3.12 3.12 0 0 1 3.122 3.119Z" stroke="#fff"/></svg><svg fill="none" viewBox="0 0 19 19" id="search" xmlns="http://www.w3.org/2000/svg"><path d="m18.711 17.306-4.684-4.703a7.49 7.49 0 0 0 1.864-4.932C15.891 3.441 12.327 0 7.946 0S0 3.441 0 7.671s3.565 7.671 7.946 7.671a8.056 8.056 0 0 0 4.552-1.388l4.72 4.74c.197.197.462.306.746.306.27 0 .525-.1.718-.28a.977.977 0 0 0 .03-1.414ZM7.946 2.001c3.238 0 5.873 2.544 5.873 5.67 0 3.127-2.635 5.67-5.873 5.67-3.239 0-5.873-2.543-5.873-5.67 0-3.126 2.634-5.67 5.873-5.67Z" fill="#fff"/></svg><svg fill="none" viewBox="0 0 42 42" id="telegram" xmlns="http://www.w3.org/2000/svg"><circle cx="21" cy="21" r="20.5" stroke="#fff"/><path d="M28.126 12.862c-.55.217-16.176 6.805-16.176 6.805s-.757.259-.697.737c.06.477.677.696.677.696l4.022 1.354s1.214 3.982 1.453 4.738c.24.757.43.775.43.775.223.096.426-.058.426-.058l2.599-2.37 4.05 3.106c1.096.478 1.494-.517 1.494-.517l2.79-14.298c.248-1.107-.487-1.197-1.068-.968Z" stroke="#fff" stroke-width="2" stroke-miterlimit="10"/><path d="M26.144 16.323c.02-.338-.451-.097-.451-.097l-9.824 6.085 1.536 4.882c.239.757.566.886.566.886l.733-4.668s6.943-6.47 7.241-6.75c.299-.278.2-.338.2-.338Z" fill="#fff"/></svg><svg fill="none" viewBox="0 0 21 17" id="user-busket" xmlns="http://www.w3.org/2000/svg"><path d="M17.81 4.695a.806.806 0 0 1 .178.674l-.755 4.08a.76.76 0 0 1-.307.525.969.969 0 0 1-.606.206H5.32L5.1 11.34h10.485c.252 0 .47.084.656.253a.813.813 0 0 1 .278.627c0 .25-.093.458-.278.627a.942.942 0 0 1-.656.253H3.988a.945.945 0 0 1-.714-.319.873.873 0 0 1-.219-.73l.497-2.545-.755-7.15-2.145-.637A.882.882 0 0 1 .036.615.839.839 0 0 1 .504.1c.232-.106.467-.128.705-.065l2.74.823c.173.05.315.144.428.281a.95.95 0 0 1 .208.468l.159 1.423 12.43 1.31c.279.037.49.156.636.355ZM5.397 13.586c.398 0 .735.131 1.013.393.278.262.417.58.417.955 0 .374-.139.696-.417.964a1.404 1.404 0 0 1-1.013.402c-.397 0-.734-.134-1.012-.402a1.292 1.292 0 0 1-.417-.964c0-.374.139-.693.417-.955a1.422 1.422 0 0 1 1.012-.393Zm8.48 0c.397 0 .734.131 1.012.393s.417.58.417.955c0 .374-.139.696-.417.964a1.404 1.404 0 0 1-1.012.402c-.398 0-.735-.134-1.013-.402a1.293 1.293 0 0 1-.417-.964c0-.374.139-.693.417-.955a1.422 1.422 0 0 1 1.013-.393Z" fill="#fff"/><circle cx="17" cy="4.463" r="4" fill="#2EF30E"/></svg><svg fill="none" viewBox="0 0 26 17" id="user-login" xmlns="http://www.w3.org/2000/svg"><path d="M23.454 15.984H2.562c-.895 0-1.687-.694-1.156-1.415 1.541-2.097 7.117-4.109 10.427-5.035.171-.048.345-.07.523-.07h1.305c.177 0 .359.024.53.072 6.51 1.803 9.328 3.703 10.336 5.052.535.718-.177 1.396-1.073 1.396ZM17.108 4.075c0 1.92-1.777 3.575-4.1 3.575-2.322 0-4.1-1.656-4.1-3.575 0-1.92 1.777-3.575 4.1-3.575 2.323 0 4.1 1.656 4.1 3.575Z" fill="#fff" stroke="#fff"/></svg><svg fill="none" viewBox="0 0 42 42" id="vk" xmlns="http://www.w3.org/2000/svg"><circle cx="21" cy="21" r="20.5" stroke="#fff"/><path d="M30.881 27.601c-.898-1.617-3.213-3.56-4.168-4.405a.621.621 0 0 1-.052-.888c1.824-1.96 3.282-4.211 3.784-5.572.222-.6-.237-1.236-.883-1.236h-1.876c-.619 0-.98.222-1.153.576-1.516 3.105-2.816 4.45-3.726 5.235-.51.44-1.304.075-1.304-.594v-4.14c0-.574-.469-1.038-1.047-1.038l-3.428-.039a.52.52 0 0 0-.42.831l.567.813c.213.281.328.624.328.975l-.003 3.66c0 .636-.772.947-1.23.5-1.55-1.508-2.894-4.59-3.378-6.063a1.044 1.044 0 0 0-.992-.716l-1.849-.004c-.693 0-1.2.657-1.012 1.32 1.69 5.928 5.155 11.568 11.33 12.18a1.04 1.04 0 0 0 1.134-1.037v-1.923c0-.552.433-1.026.989-1.04h.058c1.634 0 3.463 2.377 4.103 3.49.184.32.528.514.9.514h2.487c.725 0 1.19-.77.841-1.399Z" fill="#fff"/></svg></svg>